<?xml version="1.0" encoding="utf-8"?>
<!-- Generator: Adobe Illustrator 16.0.0, SVG Export Plug-In . SVG Version: 6.00 Build 0)  -->
<!DOCTYPE svg PUBLIC "-//W3C//DTD SVG 1.1//EN" "http://www.w3.org/Graphics/SVG/1.1/DTD/svg11.dtd">
<svg version="1.1" id="Layer_1" xmlns="http://www.w3.org/2000/svg" xmlns:xlink="http://www.w3.org/1999/xlink" x="0px" y="0px"
	 width="116.74px" height="127.67px" viewBox="0 0 116.74 127.67" enable-background="new 0 0 116.74 127.67" xml:space="preserve">
<g>
	<g>
		<defs>
			<path id="SVGID_1_" d="M66.805,56.452c-0.217,0.021-0.434,0.042-0.645,0.061c-0.341,0.044-0.681,0.099-1.028,0.151
				c-0.139,0.018-0.273,0.044-0.411,0.073c0.078,0.248,0.138,0.504,0.206,0.752c0.09,0.317,0.168,0.621,0.246,0.929
				c0.124,0.436,0.216,0.877,0.326,1.324c0.064,0.284,0.135,0.577,0.2,0.872c0.104,0.479,0.197,0.963,0.287,1.463
				c0.05,0.262,0.1,0.506,0.148,0.769c0.13,0.75,0.242,1.503,0.341,2.245c0.122,0.923,0.213,1.84,0.287,2.749
				c1.04,12.895-2.586,25.351-9.931,33.724c-0.381,0.43-0.761,0.838-1.155,1.232c-0.1,0.11-0.21,0.222-0.319,0.327
				c-0.288,0.29-0.585,0.575-0.889,0.846c-0.111,0.11-0.227,0.22-0.342,0.333c-0.349,0.301-0.698,0.594-1.046,0.883
				c-0.063,0.051-0.125,0.104-0.181,0.149c-0.415,0.338-0.835,0.64-1.263,0.949c-0.096,0.062-0.198,0.133-0.295,0.198
				c-0.331,0.231-0.663,0.443-1,0.652c-0.131,0.087-0.257,0.165-0.388,0.234c-0.333,0.205-0.679,0.405-1.018,0.583
				c-0.104,0.048-0.206,0.114-0.306,0.16c-0.444,0.233-0.896,0.443-1.343,0.645c-0.069,0.03-0.138,0.056-0.2,0.082
				c-0.386,0.16-0.772,0.311-1.158,0.451l-0.17,0.066c3.317-0.484,6.586-1.641,9.751-3.451c5.603-3.191,10.414-8.131,14.093-14.138
				l0.299-0.507c2.985-4.994,5.109-10.566,6.346-16.542c0.275-1.308,0.466-2.41,0.613-3.47c0.017-0.102,0.031-0.199,0.046-0.302
				l0.034-0.224c0.292-2.236,0.443-4.503,0.46-6.789c0.006-2.186-0.124-4.467-0.41-6.781c-2.094-0.575-4.458-0.864-6.916-0.864
				C68.995,56.289,67.901,56.339,66.805,56.452"/>
		</defs>
		<clipPath id="SVGID_2_">
			<use xlink:href="#SVGID_1_"  overflow="visible"/>
		</clipPath>
		
			<linearGradient id="SVGID_3_" gradientUnits="userSpaceOnUse" x1="87.6372" y1="231.2319" x2="91.2351" y2="231.2319" gradientTransform="matrix(12.3395 -9.9923 -9.9923 -12.3395 1268.1858 3830.0508)">
			<stop  offset="0" style="stop-color:#EF7922"/>
			<stop  offset="1" style="stop-color:#DF3826"/>
		</linearGradient>
		<polygon clip-path="url(#SVGID_2_)" fill="url(#SVGID_3_)" points="19.802,77.302 64.87,40.808 103.358,88.344 58.292,124.835 		
			"/>
	</g>
	<g>
		<defs>
			<path id="SVGID_4_" d="M62.252,57.237c-0.338,0.084-0.688,0.164-1.031,0.252c-0.653,0.183-1.31,0.382-1.951,0.6
				c-0.009,0.008-0.015,0.008-0.025,0.008c0.29,1.904,0.437,3.834,0.42,5.747c-0.005,1.989-0.188,3.908-0.486,5.753l0.014,0.009
				l-0.116,0.667c-0.003,0.009-0.003,0.035-0.015,0.047c-0.059,0.33-0.128,0.66-0.2,0.989c-0.056,0.306-0.124,0.587-0.196,0.886
				c-0.088,0.375-0.178,0.745-0.278,1.103c-0.114,0.44-0.233,0.87-0.367,1.303c-0.036,0.094-0.059,0.202-0.092,0.304h0.009
				l-0.291,0.852l-0.24,0.679l-0.012-0.004c-0.107,0.29-0.213,0.575-0.328,0.855c-0.109,0.275-0.231,0.557-0.35,0.834
				c-0.135,0.323-0.27,0.648-0.422,0.958c-0.128,0.286-0.266,0.556-0.409,0.831c-0.149,0.309-0.291,0.609-0.443,0.885
				c-0.159,0.287-0.319,0.558-0.474,0.837c-0.148,0.261-0.3,0.538-0.46,0.793c-0.161,0.276-0.341,0.532-0.516,0.804
				c-0.16,0.253-0.326,0.491-0.492,0.734c-0.165,0.244-0.338,0.471-0.512,0.699c-0.188,0.25-0.375,0.512-0.565,0.749
				c-0.146,0.179-0.295,0.355-0.438,0.517c-0.231,0.286-0.466,0.569-0.707,0.833c-0.104,0.1-0.205,0.206-0.305,0.307
				c-0.299,0.32-0.602,0.625-0.907,0.917c-0.015,0.007-0.026,0.02-0.041,0.037l-0.379,0.357l-0.011-0.003
				c-0.959,0.847-1.936,1.579-2.908,2.139c-1.627,0.919-3.174,1.392-4.6,1.392c-1.678,0-2.766-0.64-3.289-0.937
				c-0.181-0.113-0.439-0.267-0.72-0.475c-0.003-0.001-0.003-0.001-0.003-0.001c-0.015-0.013-0.021-0.02-0.032-0.022
				c-1.746-1.179-3.058-2.718-3.92-4.545c-0.014-0.022-0.028-0.048-0.04-0.074c-0.104-0.232-0.206-0.47-0.303-0.715
				c-0.017-0.056-0.036-0.116-0.057-0.164c-0.074-0.212-0.154-0.429-0.222-0.647c-0.026-0.087-0.047-0.165-0.069-0.25
				c-0.056-0.201-0.112-0.399-0.163-0.597c-0.021-0.107-0.038-0.207-0.064-0.307c-0.04-0.203-0.075-0.386-0.11-0.576
				c-0.02-0.121-0.038-0.246-0.05-0.354c-0.026-0.191-0.049-0.375-0.069-0.569c-0.013-0.121-0.018-0.254-0.036-0.388
				c-0.007-0.181-0.02-0.365-0.026-0.552c0-0.129-0.007-0.28-0.007-0.417c-0.002-0.186-0.005-0.372,0-0.555
				c0.007-0.152,0.013-0.291,0.021-0.439c0.005-0.192,0.012-0.372,0.036-0.566c0.007-0.145,0.027-0.297,0.038-0.454
				c0.016-0.102,0.018-0.211,0.031-0.319c-2.584-2.328-4.922-4.872-6.984-7.566c-0.081-0.107-0.156-0.219-0.24-0.325
				c-0.284-0.373-0.57-0.76-0.846-1.147c-0.141-0.198-0.278-0.392-0.416-0.597c-0.211-0.306-0.428-0.624-0.635-0.941
				c-0.141-0.208-0.275-0.406-0.413-0.624c-0.229-0.361-0.454-0.728-0.678-1.096c-0.074-0.125-0.158-0.25-0.236-0.379
				c-3.24,6.075-4.968,12.44-4.992,18.485c-0.043,9.695,4.415,17.886,12.248,22.469l0.047,0.024c2.963,1.724,6.075,2.593,9.26,2.593
				c5.854,0,11.692-2.977,16.425-8.374c7.563-8.632,11.031-21.791,9.262-35.197c-0.372-2.831-0.957-5.61-1.748-8.278
				C62.836,57.097,62.55,57.167,62.252,57.237"/>
		</defs>
		<clipPath id="SVGID_5_">
			<use xlink:href="#SVGID_4_"  overflow="visible"/>
		</clipPath>
		
			<linearGradient id="SVGID_6_" gradientUnits="userSpaceOnUse" x1="91.3438" y1="218.4604" x2="94.9418" y2="218.4604" gradientTransform="matrix(-14.0141 4.5535 4.5535 14.0141 354.1056 -3403.1699)">
			<stop  offset="0" style="stop-color:#EF7922"/>
			<stop  offset="1" style="stop-color:#F8B020"/>
		</linearGradient>
		<polygon clip-path="url(#SVGID_5_)" fill="url(#SVGID_6_)" points="81.881,103.933 22.277,123.298 2.353,61.983 61.962,42.615 		
			"/>
	</g>
	<g>
		<defs>
			<path id="SVGID_7_" d="M35.386,84.745c-0.018-0.282-0.028-0.57-0.024-0.868c0.006-1.11,0.152-2.316,0.429-3.594
				c-0.41-0.327-0.808-0.655-1.212-0.987C34.476,81.028,34.652,82.95,35.386,84.745"/>
		</defs>
		<clipPath id="SVGID_8_">
			<use xlink:href="#SVGID_7_"  overflow="visible"/>
		</clipPath>
		
			<linearGradient id="SVGID_9_" gradientUnits="userSpaceOnUse" x1="29.9736" y1="178.855" x2="33.5742" y2="178.855" gradientTransform="matrix(0.2395 1.5124 1.5124 -0.2395 -242.9792 76.7779)">
			<stop  offset="0" style="stop-color:#DF3826"/>
			<stop  offset="1" style="stop-color:#EF7922"/>
		</linearGradient>
		<polygon clip-path="url(#SVGID_8_)" fill="url(#SVGID_9_)" points="35.758,79.09 36.631,84.61 34.509,84.952 33.635,79.429 		"/>
	</g>
	<g>
		<defs>
			<path id="SVGID_10_" d="M17.821,43.506c-0.066,14.976,10.146,31.022,25.415,39.931c1.916,1.125,3.956,2.152,6.068,3.05
				c2.684-2.635,4.971-6.291,6.513-10.416c-0.267-0.068-0.537-0.146-0.808-0.214c-0.286-0.083-0.572-0.149-0.86-0.235
				c-0.455-0.117-0.898-0.251-1.352-0.393c-0.268-0.087-0.546-0.165-0.83-0.248c-0.473-0.159-0.959-0.332-1.445-0.498
				c-0.231-0.085-0.469-0.159-0.708-0.244c-0.713-0.272-1.422-0.546-2.128-0.829c-13.314-5.517-21.72-14.824-25.683-23.88
				c-0.002-0.013-0.008-0.022-0.008-0.031c-0.161-0.363-0.31-0.73-0.458-1.087c-0.011-0.038-0.026-0.063-0.031-0.094
				c-0.125-0.319-0.242-0.624-0.351-0.937c-0.031-0.081-0.069-0.163-0.094-0.241c-0.094-0.264-0.169-0.527-0.264-0.779
				c-0.039-0.134-0.084-0.26-0.123-0.39c-0.063-0.2-0.112-0.401-0.171-0.594c-0.059-0.194-0.119-0.383-0.169-0.572
				c-0.047-0.161-0.083-0.323-0.125-0.496c-0.058-0.219-0.115-0.438-0.163-0.657c-0.045-0.167-0.077-0.335-0.112-0.511
				c-0.045-0.204-0.088-0.417-0.133-0.62c-0.03-0.165-0.056-0.337-0.083-0.502c-0.034-0.209-0.073-0.418-0.105-0.625
				c-0.023-0.175-0.041-0.356-0.067-0.516c-0.023-0.208-0.054-0.398-0.079-0.59c-0.019-0.2-0.031-0.389-0.048-0.587
				c-0.011-0.167-0.029-0.326-0.041-0.497l0,0c0-0.007,0-0.007,0-0.007c-0.002-0.067-0.002-0.134-0.006-0.202
				c-0.025-0.449-0.043-0.895-0.043-1.332c0-0.181,0.006-0.353,0.013-0.537c0.005-0.317,0.005-0.641,0.028-0.958
				c0.009-0.204,0.028-0.399,0.047-0.598c0.025-0.292,0.051-0.59,0.077-0.872c0.03-0.205,0.063-0.402,0.097-0.606
				c0.026-0.221,0.056-0.447,0.095-0.667C18.483,36.5,17.846,39.901,17.821,43.506"/>
		</defs>
		<clipPath id="SVGID_11_">
			<use xlink:href="#SVGID_10_"  overflow="visible"/>
		</clipPath>
		
			<linearGradient id="SVGID_12_" gradientUnits="userSpaceOnUse" x1="95.1436" y1="226.3491" x2="98.7429" y2="226.3491" gradientTransform="matrix(-8.6933 -14.468 -14.468 8.6933 4153.7285 -506.1882)">
			<stop  offset="0" style="stop-color:#EF7922"/>
			<stop  offset="1" style="stop-color:#F8B020"/>
		</linearGradient>
		<polygon clip-path="url(#SVGID_11_)" fill="url(#SVGID_12_)" points="27.854,103.286 -5.669,47.501 45.718,16.627 79.243,72.41 		
			"/>
	</g>
	<g>
		<defs>
			<path id="SVGID_13_" d="M30.308,21.143c-6.504,3.716-9.819,10.09-9.32,17.952C21.68,50.086,30.396,64.5,48.301,71.918
				c2.646,1.098,5.354,1.976,8.053,2.62c0.405-1.266,0.748-2.58,1.011-3.902c-1.812-0.708-3.552-1.54-5.192-2.507
				c-1.714-0.997-3.284-2.105-4.735-3.295l-0.015,0.013l-0.512-0.438c-0.016-0.011-0.029-0.025-0.042-0.028
				c-0.262-0.231-0.516-0.454-0.772-0.679c-0.211-0.192-0.423-0.39-0.631-0.595c-0.324-0.293-0.639-0.605-0.944-0.914
				c-0.276-0.276-0.549-0.557-0.811-0.838c-0.076-0.079-0.167-0.169-0.243-0.251l-0.005,0.009l-0.593-0.687l-0.47-0.548l0.007-0.007
				c-0.2-0.242-0.398-0.488-0.589-0.729c-0.169-0.214-0.331-0.43-0.5-0.655c-0.223-0.296-0.452-0.608-0.665-0.905
				c-0.162-0.24-0.317-0.466-0.48-0.709c-0.188-0.295-0.392-0.59-0.581-0.883c-0.15-0.255-0.292-0.51-0.443-0.755
				c-0.164-0.293-0.341-0.584-0.498-0.869c-0.136-0.262-0.268-0.515-0.393-0.775c-0.149-0.294-0.295-0.578-0.43-0.867
				c-0.12-0.244-0.225-0.491-0.328-0.737c-0.126-0.303-0.262-0.608-0.385-0.919c-0.074-0.197-0.145-0.402-0.222-0.608
				c-0.13-0.354-0.263-0.705-0.362-1.042c-0.042-0.152-0.082-0.283-0.127-0.422c-0.121-0.419-0.232-0.83-0.327-1.236
				c-0.005-0.021-0.017-0.044-0.017-0.06l-0.119-0.51l0.01-0.005c-0.26-1.26-0.404-2.466-0.397-3.592
				c0.021-5.046,2.669-6.557,3.54-7.057c0.193-0.106,0.453-0.248,0.77-0.387c0.009,0,0.016-0.013,0.016-0.013
				c0.005,0,0.005-0.004,0.013-0.007c0.349-0.163,0.7-0.309,1.051-0.438c0.108-0.04,0.21-0.074,0.317-0.112
				c0.264-0.088,0.531-0.17,0.796-0.237c0.29-0.07,0.583-0.131,0.87-0.19c0.087-0.011,0.168-0.027,0.256-0.041
				c0.566-0.097,1.134-0.153,1.714-0.153c1.652,0,3.328,0.384,4.977,1.12c0.021,0.005,0.038,0.005,0.051,0.019
				c0.247,0.105,0.494,0.222,0.741,0.347c0.12,0.058,0.232,0.12,0.343,0.188c0.188,0.097,0.366,0.194,0.542,0.294
				c0.311,0.181,0.616,0.381,0.922,0.578c0.081,0.052,0.151,0.115,0.237,0.167c0.174,0.125,0.348,0.243,0.524,0.369
				c3.277-1.061,6.646-1.818,10.025-2.266c0.121-0.014,0.256-0.028,0.386-0.051c0.524-0.056,1.035-0.124,1.55-0.165
				c0.171-0.019,0.329-0.032,0.494-0.042c0.5-0.048,0.998-0.081,1.501-0.113c0.147-0.007,0.294-0.011,0.449-0.018
				c0.519-0.028,1.036-0.05,1.555-0.056c0.076,0,0.153-0.007,0.233-0.007c-3.651-5.848-8.3-10.516-13.508-13.562
				c-4.309-2.512-9.005-3.842-13.577-3.842C38.11,17.916,34.057,19.005,30.308,21.143"/>
		</defs>
		<clipPath id="SVGID_14_">
			<use xlink:href="#SVGID_13_"  overflow="visible"/>
		</clipPath>
		
			<linearGradient id="SVGID_15_" gradientUnits="userSpaceOnUse" x1="80.2134" y1="223.8853" x2="83.8123" y2="223.8853" gradientTransform="matrix(7.9946 14.4227 14.4227 -7.9946 -3839.439 653.7615)">
			<stop  offset="0" style="stop-color:#EF7922"/>
			<stop  offset="1" style="stop-color:#DF3826"/>
		</linearGradient>
		<polygon clip-path="url(#SVGID_14_)" fill="url(#SVGID_15_)" points="57.926,-2.834 93.438,61.232 31.992,95.291 -3.523,31.222 		
			"/>
	</g>
	<g>
		<defs>
			<path id="SVGID_16_" d="M46.98,37.065c0.952,0.557,1.925,1.283,2.893,2.172c0.211-0.084,0.431-0.172,0.649-0.248
				c0.275-0.108,0.553-0.205,0.829-0.304c-1.699-1.117-3.411-1.788-5.122-2.024C46.479,36.784,46.729,36.92,46.98,37.065"/>
		</defs>
		<clipPath id="SVGID_17_">
			<use xlink:href="#SVGID_16_"  overflow="visible"/>
		</clipPath>
		
			<linearGradient id="SVGID_18_" gradientUnits="userSpaceOnUse" x1="36.0771" y1="301.0024" x2="39.6753" y2="301.0024" gradientTransform="matrix(1.4233 0 0 -1.4233 -5.118 466.3658)">
			<stop  offset="0" style="stop-color:#F8B020"/>
			<stop  offset="1" style="stop-color:#EA4F24"/>
		</linearGradient>
		<rect x="46.23" y="36.661" clip-path="url(#SVGID_17_)" fill="url(#SVGID_18_)" width="5.122" height="2.576"/>
	</g>
	<g>
		<defs>
			<path id="SVGID_19_" d="M43.421,44.104c-1.94,1.102-3.841,2.356-5.669,3.733c0.944,3.646,2.962,7.453,5.76,10.856
				c0.19-0.207,0.394-0.396,0.584-0.596c0.214-0.218,0.432-0.43,0.648-0.649c0.328-0.321,0.666-0.637,1.008-0.954
				c0.208-0.206,0.42-0.404,0.635-0.594c0.383-0.347,0.772-0.687,1.168-1.022c0.187-0.152,0.361-0.316,0.546-0.471
				c0.588-0.487,1.179-0.97,1.792-1.428c8.863-6.809,19.27-10.553,29.291-10.553c0.486,0,0.955,0.003,1.434,0.025
				c0.157,0.004,0.313,0.012,0.475,0.021c0.308,0.02,0.615,0.024,0.927,0.051c0.177,0.015,0.362,0.032,0.548,0.047
				c0.276,0.023,0.549,0.048,0.823,0.08c0.19,0.013,0.388,0.04,0.57,0.065c0.26,0.033,0.515,0.07,0.771,0.103
				c0.193,0.027,0.385,0.064,0.572,0.096c0.25,0.038,0.5,0.073,0.743,0.129c0.192,0.03,0.378,0.071,0.563,0.105
				c0.241,0.054,0.476,0.106,0.713,0.154c0.184,0.042,0.374,0.083,0.56,0.136c0.226,0.063,0.462,0.11,0.687,0.176
				c0.181,0.051,0.359,0.101,0.542,0.158c0.224,0.063,0.441,0.127,0.661,0.2c0.186,0.057,0.355,0.113,0.528,0.175
				c0.218,0.064,0.439,0.149,0.649,0.216c0.176,0.073,0.346,0.134,0.512,0.203c0.208,0.08,0.419,0.159,0.627,0.248
				c0.163,0.071,0.332,0.142,0.493,0.211c0.207,0.095,0.405,0.182,0.609,0.271c0.153,0.072,0.312,0.151,0.469,0.24
				c0.197,0.089,0.393,0.194,0.586,0.29c0.156,0.077,0.308,0.16,0.455,0.247c0.193,0.103,0.386,0.21,0.567,0.328
				c0.144,0.083,0.293,0.164,0.43,0.247c0.189,0.123,0.371,0.248,0.554,0.368c0.138,0.085,0.271,0.174,0.4,0.264
				c0.183,0.129,0.365,0.252,0.548,0.382c0.117,0.099,0.241,0.184,0.367,0.271c0.18,0.144,0.359,0.29,0.53,0.43
				c0.097,0.076,0.192,0.15,0.286,0.227c-2.043-2.531-4.629-4.746-7.672-6.522c-5.768-3.364-12.884-5.146-20.576-5.146
				C61.015,36.92,51.526,39.471,43.421,44.104"/>
		</defs>
		<clipPath id="SVGID_20_">
			<use xlink:href="#SVGID_19_"  overflow="visible"/>
		</clipPath>
		
			<linearGradient id="SVGID_21_" gradientUnits="userSpaceOnUse" x1="79.5186" y1="228.1343" x2="83.1173" y2="228.1343" gradientTransform="matrix(10.2797 8.3244 8.3244 -10.2797 -2666.7522 1716.1929)">
			<stop  offset="0" style="stop-color:#EF7922"/>
			<stop  offset="0.9912" style="stop-color:#EA4F24"/>
			<stop  offset="1" style="stop-color:#EA4F24"/>
		</linearGradient>
		<polygon clip-path="url(#SVGID_20_)" fill="url(#SVGID_21_)" points="61.764,7.266 109.034,45.543 74.369,88.347 27.105,50.067 		
			"/>
	</g>
	<g>
		<defs>
			<path id="SVGID_22_" d="M50.872,54.25c-2.275,1.752-4.387,3.652-6.305,5.658c0.906,0.997,1.865,1.945,2.882,2.832
				c1.515-1.218,3.111-2.307,4.761-3.247c7.012-4,13.572-4.843,17.841-4.843c4.546,0,8.708,0.966,11.721,2.725
				c4.156,2.427,4.331,5.316,4.34,6.451l0.005,0.021l-0.015,0.196c0.009,0.172-0.007,0.465-0.039,0.821
				c-0.129,1.796-0.647,3.463-1.512,4.95c-0.012,0.016-0.019,0.038-0.026,0.051c-0.142,0.226-0.279,0.455-0.43,0.664
				c-0.031,0.045-0.062,0.085-0.094,0.12c-0.131,0.198-0.276,0.389-0.42,0.572c-0.047,0.054-0.092,0.107-0.144,0.172
				c-0.138,0.159-0.273,0.326-0.427,0.484c-0.059,0.074-0.135,0.136-0.193,0.205c-0.145,0.146-0.281,0.289-0.429,0.424
				c-0.078,0.072-0.162,0.141-0.244,0.224c-0.144,0.116-0.285,0.246-0.426,0.358c-0.103,0.09-0.197,0.167-0.299,0.243
				c-0.141,0.106-0.29,0.222-0.44,0.327c-0.106,0.08-0.217,0.159-0.336,0.228c-0.144,0.101-0.292,0.207-0.45,0.303
				c-0.114,0.068-0.238,0.147-0.365,0.216c-0.157,0.091-0.312,0.183-0.475,0.27c-0.129,0.078-0.263,0.144-0.386,0.207
				c-0.171,0.088-0.332,0.177-0.513,0.254c-0.13,0.061-0.271,0.124-0.408,0.183c-0.113,0.051-0.207,0.1-0.313,0.139
				c-1.17,5.511-3.103,10.671-5.733,15.383c6.897-0.239,13.265-1.927,18.5-4.915c8.433-4.813,13.292-12.785,13.335-21.87
				c0-0.433-0.018-0.853-0.037-1.287c-0.555-9.804-8.198-16.798-19.542-18.394c-1.615-0.229-3.308-0.34-5.073-0.34
				C69.518,44.036,59.465,47.661,50.872,54.25"/>
		</defs>
		<clipPath id="SVGID_23_">
			<use xlink:href="#SVGID_22_"  overflow="visible"/>
		</clipPath>
		
			<linearGradient id="SVGID_24_" gradientUnits="userSpaceOnUse" x1="80.4766" y1="221.77" x2="84.0754" y2="221.77" gradientTransform="matrix(1.998 12.6152 12.6152 -1.998 -2887.8271 -527.2426)">
			<stop  offset="0" style="stop-color:#DF3826"/>
			<stop  offset="1" style="stop-color:#EF7922"/>
		</linearGradient>
		<polygon clip-path="url(#SVGID_23_)" fill="url(#SVGID_24_)" points="102.385,34.876 111.071,89.698 46.02,99.999 37.336,45.179 
					"/>
	</g>
	<g>
		<defs>
			<path id="SVGID_25_" d="M81.708,70.53c-0.976,0.563-2.095,1.039-3.319,1.433c-0.083,0.492-0.169,1.002-0.268,1.543
				c1.558-0.775,3.137-1.878,4.335-3.427C82.219,70.232,81.971,70.386,81.708,70.53"/>
		</defs>
		<clipPath id="SVGID_26_">
			<use xlink:href="#SVGID_25_"  overflow="visible"/>
		</clipPath>
		
			<linearGradient id="SVGID_27_" gradientUnits="userSpaceOnUse" x1="-4.7402" y1="292.5386" x2="-1.1426" y2="292.5386" gradientTransform="matrix(0.7887 0.3186 0.3186 -0.7887 -10.7512 303.3907)">
			<stop  offset="0" style="stop-color:#EF7922"/>
			<stop  offset="1" style="stop-color:#FEDB42"/>
		</linearGradient>
		<polygon clip-path="url(#SVGID_26_)" fill="url(#SVGID_27_)" points="78.731,68.575 83.647,70.557 81.846,75.014 76.93,73.027 		
			"/>
	</g>
</g>
</svg>
